<?xml version="1.0" encoding="UTF-8" standalone="yes"?>
<!DOCTYPE svg PUBLIC "-//W3C//DTD SVG 1.0//EN" "http://www.w3.org/TR/2001/REC-SVG-20010904/DTD/svg10.dtd">
<svg height="700" onload="if(self.makeDraggable){makeDraggable(evt)}" width="700" xmlns="http://www.w3.org/2000/svg" xmlns:svg="http://www.w3.org/2000/svg" xmlns:xlink="http://www.w3.org/1999/xlink">
	<style type="text/css">	.draggable { cursor:move; }
	text { font-family:Verdana; font-size:11px; }
	text.title { font-size:16.5px; font-weight:bold; }
	text.legend { font-size:11px; font-weight:bold; }
	text.trk_name { font-size:11px; }
	text.trk_desc { font-size:8.25px; }
	text.wpt_name { font-size:11px; }
	text.wpt_desc { font-size:8.25px; }
</style>
	<script type="text/javascript"><![CDATA[
		function makeDraggable(evt) {
			var svg = evt.target; svg.addEventListener('mousedown', startDrag); svg.addEventListener('mousemove', drag); svg.addEventListener('mouseup', endDrag); svg.addEventListener('mouseleave', endDrag); svg.addEventListener('touchstart', startDrag); svg.addEventListener('touchmove', drag); svg.addEventListener('touchend', endDrag); svg.addEventListener('touchleave', endDrag); svg.addEventListener('touchcancel', endDrag); var selectedElement, offset, transform, bbox, minX, maxX, minY, maxY;
			function getMousePosition(evt) { var CTM = svg.getScreenCTM(); if(evt.touches) { evt = evt.touches[0]; } return { x:(evt.clientX-CTM.e)/CTM.a, y:(evt.clientY-CTM.f)/CTM.d }; }
			function startDrag(evt) { if(evt.target.classList && evt.target.classList.contains('draggable')) { selectedElement = evt.target; initialiseDragging(evt); } else if(evt.target.parentNode) { if(evt.target.parentNode.classList && evt.target.parentNode.classList.contains('draggable')) { selectedElement = evt.target.parentNode; initialiseDragging(evt); } else if(evt.target.parentNode.parentNode && evt.target.parentNode.parentNode.classList && evt.target.parentNode.parentNode.classList.contains('draggable')) { selectedElement = evt.target.parentNode.parentNode; initialiseDragging(evt); } } }
			function initialiseDragging(evt) { offset = getMousePosition(evt); var transforms = selectedElement.transform.baseVal; if(transforms.length === 0 || transforms.getItem(0).type !== SVGTransform.SVG_TRANSFORM_TRANSLATE) { var translate = svg.createSVGTransform(); translate.setTranslate(0,0); selectedElement.transform.baseVal.insertItemBefore(translate,0); } transform = transforms.getItem(0); offset.x -= transform.matrix.e; offset.y -= transform.matrix.f; }
			function drag(evt) { if(selectedElement) { evt.preventDefault(); var coord = getMousePosition(evt); var dx = coord.x-offset.x; var dy = coord.y-offset.y; transform.setTranslate(dx, dy); } }
			function endDrag(evt) { selectedElement = false; }
		}
]]></script>
	<g id="terrestris_osm:background" opacity="0.5">
		<image height="700" id="background_map_1" opacity="1" style="mix-blend-mode:normal" width="700" x="0" xlink:href="https://ows.terrestris.de/osm/service?service=WMS&amp;version=1.3.0&amp;request=GetMap&amp;format=image/jpeg&amp;exception=inimage&amp;crs=EPSG:4326&amp;styles=&amp;layers=OSM-WMS&amp;bbox=38.8995102,-92.3964778,38.9671308,-92.3096567&amp;width=700&amp;height=700" y="0" />
	</g>
	<g id="trk1" opacity="1">
		<polyline fill="none" id="trk1:p461" points=" 418.261,660.000 417.350,658.711 416.226,657.861 415.941,657.412 415.964,656.364 415.983,655.139 416.004,653.810 416.029,652.273 416.066,650.618 416.103,648.932 416.141,647.197 416.178,645.473 416.220,643.538 416.258,641.673 416.294,639.871 416.329,638.116 416.352,636.383 416.381,634.669 416.411,632.965 416.295,631.281 416.368,629.595 416.427,627.943 416.481,626.385 416.559,624.909 416.830,622.292 416.900,620.078 418.164,618.702 419.663,617.777 422.131,617.411 423.750,617.261 425.612,617.214 427.472,616.988 429.374,616.733 431.333,616.471 433.340,616.203 435.348,615.937 437.308,615.682 439.206,615.416 441.045,615.162 442.874,614.917 444.683,614.583 446.378,613.999 448.038,613.529 449.629,613.001 451.155,612.423 452.608,611.809 453.929,611.178 455.237,610.484 456.449,609.778 458.823,608.219 459.962,607.398 461.794,605.959 463.417,604.497 465.025,602.863 466.835,600.981 467.835,599.942 469.847,597.888 470.903,596.820 471.895,595.817 472.897,594.810 473.924,593.814 475.993,592.139 477.979,590.967 479.839,590.174 481.601,589.667 483.010,589.390 484.590,589.275 486.505,589.063 488.773,589.148 490.450,589.173 492.219,589.249 493.842,589.356 496.331,589.580 497.913,586.416 498.056,584.887 498.058,583.374 498.063,581.923 498.086,580.453 498.123,578.947 498.162,577.429 498.207,575.855 498.250,574.222 498.287,572.596 498.313,570.930 498.314,569.196 498.302,567.448 498.283,565.635 498.275,563.770 498.275,561.915 498.275,560.033 498.269,558.116 498.254,556.246 498.259,554.349 498.306,552.453 498.387,548.803 498.414,546.960 498.450,545.198 498.489,543.464 498.532,541.743 498.579,540.095 498.622,538.504 498.833,537.070 498.895,534.785 498.913,533.031 498.924,531.435 498.935,529.657 498.940,527.899 498.886,526.447 496.768,525.202 495.320,525.073 494.185,524.051 494.252,522.105 494.339,519.866 494.348,517.243 494.205,514.600 493.888,511.834 493.607,509.933 493.293,508.044 492.920,505.913 492.550,503.794 492.188,501.698 491.837,499.638 491.438,497.373 491.081,495.490 490.606,493.360 489.890,490.998 489.106,488.862 488.256,486.665 487.559,484.272 487.274,481.769 487.181,479.411 486.851,476.924 486.075,474.537 484.957,472.404 483.526,470.263 481.906,468.237 480.184,466.457 478.158,464.694 475.951,463.058 473.785,461.629 471.444,460.187 466.868,457.511 464.579,456.077 460.561,452.723 458.735,450.758 455.631,446.551 454.280,444.176 453.174,441.752 452.250,439.172 451.470,436.499 450.970,434.030 450.723,431.624 450.663,429.175 450.770,426.799 451.045,424.357 451.546,421.943 452.177,419.660 452.894,417.407 453.719,415.180 454.570,413.106 455.506,411.038 456.461,408.978 457.266,407.002 458.049,405.020 458.761,403.013 459.378,401.165 459.810,399.392 460.353,397.922 460.453,394.824 457.773,393.625 456.187,393.036 454.494,392.408 452.997,391.642 451.632,390.571 450.403,389.197 449.486,387.684 449.074,386.018 448.797,384.309 448.817,382.424 448.848,380.418 448.881,378.404 448.907,376.376 448.931,374.374 449.011,372.395 449.145,370.414 449.403,368.433 449.795,366.462 450.350,364.491 451.116,362.575 452.063,360.684 453.060,358.850 454.109,357.200 455.095,355.596 456.020,354.060 456.896,352.602 457.708,351.239 458.458,349.972 459.619,347.765 460.271,345.999 459.661,344.427 458.179,344.629 456.770,343.988 455.190,343.299 453.341,342.557 451.464,341.446 449.752,340.083 448.153,338.573 446.686,337.098 445.347,335.664 444.248,334.198 443.504,332.678 443.283,331.104 443.313,329.557 443.267,327.941 443.120,326.291 442.658,324.690 442.211,323.068 441.935,321.356 441.957,319.491 441.933,317.516 441.682,315.616 441.298,313.750 440.694,311.854 439.728,310.159 438.368,309.078 436.718,308.488 435.017,308.612 433.424,308.748 431.841,308.920 430.344,308.578 428.521,307.098 427.991,305.463 427.988,303.992 428.146,302.517 426.694,301.577 424.054,300.863 422.279,300.539 420.296,300.192 418.031,299.780 415.549,299.319 412.926,298.834 410.253,298.029 407.517,297.409 404.762,296.786 401.993,296.171 399.169,295.548 396.341,294.892 393.549,294.246 390.716,293.652 387.932,293.045 384.916,292.345 382.226,291.823 379.771,291.141 376.976,290.411 373.994,289.694 371.212,289.112 368.410,288.662 365.752,288.365 362.945,288.198 360.111,288.182 357.453,288.294 354.713,288.550 352.050,289.182 349.537,289.785 346.917,290.507 344.335,291.259 341.901,292.028 339.332,292.849 336.750,293.711 334.303,294.514 331.733,295.351 329.237,296.165 326.721,296.985 324.151,297.715 321.659,298.447 319.088,299.080 316.446,299.613 313.883,300.032 311.253,300.394 308.565,300.629 305.930,300.736 303.239,300.668 300.517,300.365 297.852,300.180 295.131,299.988 292.343,299.799 289.604,299.636 286.786,299.492 283.892,299.331 278.282,298.891 275.441,298.632 272.690,298.370 269.879,298.098 266.978,297.821 264.129,297.556 261.201,297.280 258.179,296.992 255.219,296.707 252.170,296.405 249.046,296.093 246.010,295.784 242.942,295.444 239.848,294.999 236.870,294.419 233.873,293.638 230.910,292.665 225.250,290.161 222.637,288.714 220.172,287.175 217.858,285.511 215.687,283.727 213.681,281.826 211.856,279.826 210.192,277.727 208.675,275.560 207.311,273.339 206.095,271.074 205.020,268.774 204.079,266.445 203.272,264.092 202.584,261.742 202.017,259.432 201.592,257.151 201.319,254.901 201.173,252.696 201.092,250.544 201.060,248.374 201.068,246.197 201.111,244.037 201.167,241.871 201.219,239.696 201.266,237.543 201.317,235.379 201.377,233.228 201.450,231.076 201.524,228.925 201.592,226.794 201.655,224.780 201.713,222.958 201.768,221.250 201.808,219.737 201.865,216.677 201.889,215.227 201.924,213.145 201.954,211.095 201.966,208.785 201.989,206.063 202.006,204.551 202.040,201.283 202.052,199.510 202.042,195.773 202.025,193.890 202.013,192.084 202.006,190.110 202.014,188.283 202.025,186.404 202.040,184.470 202.058,182.564 202.077,180.593 202.093,178.546 202.111,176.541 202.130,174.507 202.143,172.440 202.158,170.442 202.181,168.416 202.213,166.377 202.242,164.332 202.271,162.284 202.298,160.228 202.330,158.176 202.374,156.123 202.448,154.053 202.549,151.995 202.660,149.978 202.760,148.009 202.843,145.859 202.902,144.136 202.965,142.274 203.021,140.449 203.066,138.656 203.102,136.903 203.133,135.014 203.160,133.329 203.182,131.667 203.198,130.068 203.217,128.505 203.236,126.948 203.254,125.402 203.273,123.860 203.283,122.319 203.287,120.770 203.296,119.238 203.313,117.708 203.334,116.175 203.352,114.642 203.378,113.075 203.406,111.476 203.434,109.852 203.463,108.205 203.494,106.550 203.541,105.014 203.493,102.324 205.678,99.914 208.179,100.027 212.318,100.660 213.784,100.874 215.280,101.081 216.736,101.271 219.210,101.636 221.073,101.834 221.581,100.432 221.665,98.115 221.692,95.494 221.755,92.639 221.777,91.107 221.802,89.578 221.832,87.993 221.853,86.357 221.865,84.692 221.873,83.029 221.887,81.369 221.899,79.721 221.906,78.129 221.916,76.602 221.888,75.068 221.879,73.612 221.876,70.896 221.908,68.550 222.035,67.016 222.127,65.491 222.189,63.864 222.398,61.740 222.689,60.165 223.143,58.269 223.794,56.305 224.785,54.323 226.083,52.279 227.618,50.174 229.201,48.121 230.631,46.038 231.722,44.004 231.602,42.529 229.883,42.084 228.294,41.928 226.457,41.449 224.746,41.352 223.255,41.257 221.777,41.105 220.258,40.886 218.588,40.633 216.797,40.352 214.839,40.091 212.841,40.177 210.817,40.000 206.609,42.454 206.544,44.116 206.432,45.605 206.266,47.260 206.268,49.097 206.323,50.508 206.312,50.965" stroke="#cc0000" stroke-linejoin="round" stroke-width="2" />
	</g>
	<g class="draggable" id="trk1:label" opacity="1" x="416.261" y="658">
		<text class="trk_name" fill="#cc0000" id="trk1:name" opacity="1" text-anchor="middle" x="416.261" y="658">Cosmo Park ⇨ Best Buy</text>
	</g>
	<g id="Waypoints" />
	<g class="draggable" id="map:legend" x="6" y="686">
		<text class="legend" fill="#cc0000" id="map:legend:trktrk1_label" text-anchor="start" x="6" y="686">Cosmo Park ⇨ Best Buy</text>
		<text class="legend" fill="#000000" id="map:legend:header" text-anchor="start" x="6" y="672.25">Tracks:</text>
	</g>
	<g class="draggable" id="Scale" x="350" y="350">
		<line fill="none" id="scale_line" stroke="#000000" stroke-width="1" x1="303.347369069683" x2="396.652630930317" y1="681" y2="681" />
		<line fill="none" id="scale_end1" stroke="#000000" stroke-width="1" x1="303.347369069683" x2="303.347369069683" y1="679" y2="683" />
		<line fill="none" id="scale_end2" stroke="#000000" stroke-width="1" x1="396.652630930317" x2="396.652630930317" y1="679" y2="683" />
		<text fill="#000000" id="scale_text" style="font-size:11px" text-anchor="middle" x="350" y="679">1 km</text>
	</g>
	<g id="map:logo" x="350" y="697">
		<rect fill="#FFFFFF" height="11" opacity="0.6" width="160" x="270" y="688" />
		<a href="https://www.gpsvisualizer.com/" target="_blank">
			<text fill="#000000" style="font-size:9px" text-anchor="middle" transform="translate(350,697) rotate(0) translate(-350,-697)" x="350" y="697">created by GPSVisualizer.com</text>
		</a>
	</g>
	<rect fill="none" height="699" id="image_border" opacity="0" stroke="#000000" stroke-width="1" width="699" x="0.5" y="0.5" />
	<!-- 		debugging stuff:
		key = 20250309142631-41068
		min. track = 
		max. track = 
		colorize min = 
		colorize max = 
		colorize range = 0
		upper left (data) = 38.9632667890646,-92.37154033333333
		lower right (data) = 38.90337422342746,-92.33459422442805
		upper left (drawing) = 38.9671308255573,-92.396477832658
		lower right (drawing) = 38.8995101869347,-92.3096567251034
		center = 38.933320506246,-92.3530672788807
		width,height (pixels) = 700,700
		width,height (degrees) = 0.086821107554556,0.0676206386225786
		scale = 30483, resolution = 10.75 m/pixel
		bgmap = https://ows.terrestris.de/osm/service?service=WMS&version=1.3.0&request=GetMap&format=image/jpeg&exception=inimage&crs=EPSG:4326&styles=&layers=OSM-WMS&bbox=38.8995102,-92.3964778,38.9671308,-92.3096567&width=700&height=700
		input form = https://www.gpsvisualizer.com/map_input?form=jpg&format=svg
-->
	<!--
	Generated using the Perl SVG Module V2.87
	by Ronan Oger

	-->
</svg>